<svg xmlns="http://www.w3.org/2000/svg" width="12.6" height="14" viewBox="0 0 12.6 14"><defs><style>.a{fill:#fff;}</style></defs><path class="a" d="M8.82,8.313c-.807,0-1.2.438-2.52.438s-1.71-.437-2.52-.437A3.73,3.73,0,0,0,0,11.988v.7A1.332,1.332,0,0,0,1.35,14h9.9a1.332,1.332,0,0,0,1.35-1.312v-.7A3.73,3.73,0,0,0,8.82,8.313Zm2.43,4.375H1.35v-.7A2.4,2.4,0,0,1,3.78,9.625a11.292,11.292,0,0,0,2.52.437,11.183,11.183,0,0,0,2.52-.437,2.4,2.4,0,0,1,2.43,2.362ZM6.3,7.875a4,4,0,0,0,4.05-3.938A4,4,0,0,0,6.3,0,4,4,0,0,0,2.25,3.938,4,4,0,0,0,6.3,7.875Zm0-6.563A2.668,2.668,0,0,1,9,3.938,2.668,2.668,0,0,1,6.3,6.563,2.668,2.668,0,0,1,3.6,3.938,2.668,2.668,0,0,1,6.3,1.313Z"/></svg>